<svg width="48" height="43" viewBox="0 0 48 43" fill="none" xmlns="http://www.w3.org/2000/svg">
<path d="M26.1779 32.807C26.1779 33.361 25.0599 33.807 23.6779 33.807C22.2969 33.807 21.1779 33.361 21.1779 32.807C21.1779 32.254 22.2969 32.747 23.6779 32.747C25.0599 32.747 26.1779 32.254 26.1779 32.807ZM19.4779 27.925C19.4779 29.1 18.5209 30.056 17.3449 30.056C16.1689 30.056 15.2129 29.1 15.2129 27.925C15.2129 26.75 16.1689 25.793 17.3449 25.793C18.5209 25.793 19.4779 26.75 19.4779 27.925ZM32.1439 27.925C32.1439 29.1 31.1869 30.056 30.0109 30.056C28.8349 30.056 27.8789 29.1 27.8789 27.925C27.8789 26.75 28.8349 25.793 30.0109 25.793C31.1869 25.793 32.1439 26.75 32.1439 27.925Z" fill="white"/>
<path d="M45.4871 19.1774C46.3855 20.0777 47.2347 20.9288 47.3443 21.8235C47.4633 22.7775 46.6413 23.8265 45.8403 24.8485C45.2853 25.5555 41.2543 29.4735 41.1773 29.9605C41.1773 28.5465 40.1813 27.4015 38.9403 27.3985C38.5973 27.9855 38.2043 28.5515 37.7593 29.0865C38.1763 27.6605 38.4053 26.1905 38.4053 24.7325C38.4053 24.0365 38.3373 23.3775 38.2393 22.7345C33.8273 21.7505 26.9653 19.6975 25.3023 16.2045C25.3023 16.2045 17.7573 22.0845 9.03127 23.2705C8.98027 23.7445 8.95327 24.2315 8.95327 24.7315C8.95327 26.1895 9.18127 27.6575 9.59727 29.0855C9.15027 28.5475 8.75927 27.9845 8.41727 27.3975C7.17527 27.3995 6.17927 28.5455 6.17927 29.9595C6.03227 29.4755 2.53227 28.4175 1.88527 27.7795C0.948268 26.8575 0.0662681 25.9855 0.00326812 25.0525C-0.0567319 24.1425 0.689268 23.1955 1.48027 22.1925L1.48609 22.1851C2.04167 21.4789 2.67039 20.6797 2.70627 20.1785C2.74205 19.6835 2.45279 18.8477 2.17335 18.0402L2.16827 18.0255C1.73827 16.7925 1.29727 15.5175 1.65427 14.6235C2.00327 13.7565 3.11157 13.2003 4.28557 12.6113C5.09748 12.2044 5.9373 11.7834 6.22527 11.3675C6.51279 10.9522 6.61194 10.0196 6.70779 9.11796L6.70827 9.1135C6.84627 7.8075 6.97727 6.5735 7.66527 5.9435C8.35527 5.3125 9.59627 5.2925 10.9083 5.2725C11.8163 5.2585 12.7563 5.2435 13.1953 4.9935C13.6316 4.74601 14.1223 3.9552 14.5985 3.18759L14.6073 3.1735L14.6091 3.17054C15.2994 2.05463 15.9511 1.00126 16.8463 0.732498C17.6833 0.481498 18.9103 1.0035 20.0603 1.5345C20.8493 1.8995 21.6663 2.2765 22.1813 2.2765C22.7435 2.24055 23.5341 1.73686 24.2992 1.24947L24.3023 1.2475C25.3623 0.570498 26.4813 -0.129502 27.3793 0.0204975C28.3013 0.165348 29.0896 1.12152 29.9247 2.13436L29.9273 2.1375L29.9526 2.16808C30.5246 2.85849 31.1101 3.56523 31.5733 3.7505C31.9783 3.9125 32.9073 3.8355 33.8773 3.7195L33.9 3.71679C34.4819 3.64763 35.0803 3.5765 35.6213 3.5765C36.3223 3.5765 36.8183 3.6955 37.1813 3.9485C37.9511 4.48337 38.2453 5.68684 38.5573 6.9625L38.566 6.99779C38.7812 7.86872 39.0018 8.76147 39.3383 9.1295C39.6771 9.50011 40.5589 9.8026 41.4108 10.0948L41.4331 10.1025C42.6729 10.5278 43.845 10.9298 44.3053 11.7405C44.7674 12.552 44.5122 13.763 44.2418 15.0464L44.2403 15.0535L44.2383 15.0627C44.0509 15.9489 43.8578 16.8622 44.0033 17.3445C44.1533 17.8375 44.8201 18.5073 45.4654 19.1556L45.4871 19.1774Z" fill="white"/>
</svg>
