<svg xmlns="http://www.w3.org/2000/svg" width="452" height="477" fill="none"><path stroke="#fff" stroke-linecap="round" stroke-width="12" d="M269 197c-5-10-15-18-25-22-18-6-43-7-61-1-36 10-54 53-54 87 1 29 31 53 57 59 28 5 58 2 80-16 21-18 29-48 22-73-3-12-7-25-16-33"/><path stroke="#fff" stroke-linecap="round" stroke-width="12" d="M125 250c-4-2-8-8-11-12-7-7-9-10-5-19l2-5c3-2 1-1-1-3-5-4-8-10-8-16 1-5-1-12 3-16l7-6c-4-11-5-33 8-39 6-2 11-4 17-1 4 1 6-9 7-13 3-14 20-23 32-12 6 5 5-4 9-9 5-6 11-8 18-7 7 0 16 4 21 9 2 2 2 5 5 4l8-5c10-7 29-2 29 11 0 2-2 7 2 5l9-2c7-3 18 1 24 4 5 3 6 10 6 15 0 4-8 7-2 7 12 0 26 8 22 21-1 6-5 10-9 13-2 2 0 2 2 3 3 1 5 6 7 8 6 8 5 17 0 26-1 1-10 7-9 8 19 16-6 33-21 39"/><path stroke="#fff" stroke-linecap="round" stroke-width="12" d="M171 231c-6-3 2-13 8-10 7 4-2 12-8 10ZM232 226c-3-2-6-2-7-6 0-3 3-5 6-5 9-1 10 14 0 10M198 245s1 7 6 6c4 0 14-8 13-12M106 220c-2 4-12-5-13-7-6-3-8-9-9-15 0-5 2-14 5-18 6-5 12-7 17-10"/><path stroke="#fff" stroke-linecap="round" stroke-width="12" d="M101 177c-5-2-5-13-6-17-1-8 4-11 11-11M102 211c-3-2-5-6-6-9-2-3 0 2 0 3 1 1-4-16-1-15 3 2 5 7 5 10 0 4-3-8-5-12l-1-2c2 3 2 7 2 11"/><path stroke="#fff" stroke-linecap="round" stroke-width="12" d="m100 159 1 7 1-5c0-2 0-3-1 0M118 236v-9l-1-2c1 2 3 11 3 8l-6-16M207 154l-1 8M204 165c2-4 6-12 6-4 1 6 2 2 5-1 4-4 1 1 2 2s3-1 4 1M187 110l1-6 2-1M193 97c-1 2-7 17-3 9 1-3 4-8 0-2l-7 17M191 113c-1 3-4 17-1 15l6-7-3 12"/><path stroke="#fff" stroke-linecap="round" stroke-width="12" d="M201 135c7-3-8 17 6 12 12-6 0 14 6 12 0 0 6-6 7-3 0 1-2 7 0 7 6-2 9-3 5 5M232 163c3 0 3 5 7 2 2-2 3 2 5 4M186 109l13-10c4-3-2 5-2 6"/><path stroke="#fff" stroke-linecap="round" stroke-width="12" d="M199 100c3 1 6-2 4 3M205 100c2 1 0 3 0 5"/><path stroke="#fff" stroke-linecap="round" stroke-width="12" d="M198 109s6-9 4-4M197 116c1 4 4 2 7 1 2 0 0 7 0 8-1 3 3 9 4 12M291 250c-3-1 6-4 8-5 4-1 6-3 9-5 5-2 11-7 13-12"/><path stroke="#fff" stroke-linecap="round" stroke-width="30" d="m109 165 6-4 9-6 3-3c2-2 3-2 5-2 4-2 8-3 10-6 3-5 9-8 14-11l6-7c3-3 7-4 11-5l24-6c2 0 6-2 8-1 3 0 7 3 9 2 3 0 6 3 8 4 6 2 13-2 19-2 4-1 6-2 10 0 3 1 8 2 10 5s7 4 10 7 5 5 9 3c2-1 7-3 7 2 0 3-2 9-4 11-4 3 6 7 8 7l14 3c9 4-5 12-6 17-2 8 8 14 12 20 2 2 4 5 2 9-3 3-11 3-11 8v7l2 5 2 5c-1 2-3 3-4 1v-4l-4-8c-5-6-8-14-11-21-2-7-5-13-10-19-2-2-7-3-8-5l-7-6c-6-4-11-9-15-14-5-7-11-6-18-7-8-2-19-1-28 1s-16 3-24 7h13-4c-3-1-9 1-12 2l-11 6c-1 2-5 3-5 3l9-5c6-3 14-2 20-4 3-1 11 2 4 2-8 0-15-1-22 1-8 2-13 4-19 8l-14 14c-4 4-8 8-11 14 0 1-3 9-3 6l-2-8c2 3 4 10 4 14-1 2 2 5 2 8l1 5v6l-2 10"/><path stroke="#fff" stroke-linecap="round" stroke-width="30" d="M127 199c5-9 18-16 26-21l8-9 14-12c18-11 37-21 58-22 9-1 19-1 26 4 4 3 11 6 15 5M113 236h1M100 225h-1M119 258l2 1M299 263h-1"/><path stroke="#fff" stroke-linecap="round" stroke-width="5" d="M214 249v4c1 2 3 2 5 2 3 0 3-1 3-4 0-1-1-4-3-5"/><path stroke="#fff" stroke-linecap="round" stroke-width="5" d="m222 252-3-1c-1-2 0 1-1 0M249 148c-6-11-13-20-20-30l-19-31c-4-7-11-14-14-22-1-1 6-3 6-3l18-10c9-5 18-8 25-15l23-16 12-10 11-7c2 0 4-2 5 1l7 14c7 12 16 20 24 30l4 7-7 8c-6 12-15 23-25 32-4 4-10 8-13 14l-5 7"/><path stroke="#fff" stroke-linecap="round" stroke-width="5" d="M199 68c-2 2 3 2 5 2h43l9-1 12-1c6 0 12 0 17-2 5-1 4-9 5-12 2-7 2-15 2-22V7M285 95c2-1 2-5 4-5h4c2 0 3-5 4-7M313 68c-2-2 3-4 4-6M20 291l5 13 8 24 5 22 3 12c1 1 5-4 6-4l14-8 9-3c2-1-1-6-1-7-6-10-14-18-19-28l-11-23-5-8c-1-3-1-4-4-2-5 2-9 6-14 9"/><path stroke="#fff" stroke-linecap="round" stroke-width="5" d="m41 361 13 6 8 4c2 1 7 6 9 5l1-10-1-9v-5c0-1-2-6-2-3"/><path stroke="#fff" stroke-linecap="round" stroke-width="5" d="M62 366c2 0 2-2 4-3 1 0 7 0 3 2-2 1-4 5-2 6 3 3 1-1 0-2"/><path stroke="#fff" stroke-linecap="round" stroke-width="3.7" d="M127 390h-7c-3 3-5 5-5 9 0 3 1 6 4 8 2 2 7 2 9 1 4-2 5-7 5-11 0-2-3-7-6-7"/><path stroke="#fff" stroke-linecap="round" stroke-width="3.7" d="m117 404 6-5 4-3 2-1M147 409l9-2c1 1 4 0 5-1M154 407l1-14v-2c0-2-1-2-2-1l-6 4M175 409l8-2c2 1 5 0 6-1M182 407l1-14v-2c0-2-1-2-2-1l-6 4M215 390h-7c-3 3-5 5-5 9 0 3 1 6 4 8 2 2 7 2 9 1 4-2 5-7 5-11 0-2-3-7-6-7"/><path stroke="#fff" stroke-linecap="round" stroke-width="3.7" d="m205 404 6-5 4-3 2-1M235 409l8-2c2 1 5 0 6-1M242 407l1-14v-2c0-2-1-2-2-1l-6 4M275 390h-7c-3 3-5 5-5 9 0 3 1 6 4 8 2 2 7 2 9 1 4-2 5-7 5-11 0-2-3-7-6-7"/><path stroke="#fff" stroke-linecap="round" stroke-width="3.7" d="m265 404 6-5 4-3 2-1M307 390h-7c-3 3-5 5-5 9 0 3 1 6 4 8s7 2 9 1c5-2 6-7 6-11 0-2-4-7-7-7"/><path stroke="#fff" stroke-linecap="round" stroke-width="3.7" d="m298 404 5-5 4-3 2-1M339 390h-7c-3 3-4 5-4 9 0 3 1 6 4 8 2 2 6 2 9 1 4-2 5-7 5-11 0-2-4-7-7-7"/><path stroke="#fff" stroke-linecap="round" stroke-width="3.7" d="M330 404c0-1 4-5 6-5l3-3 3-1M116 423c-2-1-5-2-7 0-3 2-5 5-5 8 0 4 1 7 4 9h9c4-2 5-7 5-11 0-2-3-7-6-7"/><path stroke="#fff" stroke-linecap="round" stroke-width="3.7" d="m106 436 6-5 4-2 2-2M136 441c2 0 7-2 9-1l5-1"/><path stroke="#fff" stroke-linecap="round" stroke-width="3.7" d="m143 440 1-15v-2c0-2-1-2-2-1-2 1-6 3-6 5M164 441c2 0 7-2 8-1l6-1"/><path stroke="#fff" stroke-linecap="round" stroke-width="3.7" d="m171 440 1-15v-2c0-2-1-2-2-1-2 1-6 3-6 5M204 423c-2-1-5-2-7 0-3 2-5 5-5 8 0 4 1 7 4 9h9c4-2 5-7 5-11 0-2-4-7-6-7"/><path stroke="#fff" stroke-linecap="round" stroke-width="3.7" d="m194 436 6-5 4-2 2-2M224 441c2 0 7-2 8-1l6-1"/><path stroke="#fff" stroke-linecap="round" stroke-width="3.7" d="m231 440 1-15v-2c0-2-1-2-2-1-2 1-6 3-6 5M264 423c-2-1-5-2-7 0-3 2-5 5-5 8 0 4 1 7 4 9h9c4-2 5-7 5-11 0-2-3-7-6-7"/><path stroke="#fff" stroke-linecap="round" stroke-width="3.7" d="m254 436 6-5 4-2 2-2M296 423c-2-1-5-2-7 0-3 2-5 5-5 8 0 4 1 7 4 9h9c5-2 6-7 6-11 0-2-4-7-7-7"/><path stroke="#fff" stroke-linecap="round" stroke-width="3.7" d="m287 436 5-5 4-2 2-2M317 441c2 0 6-2 8-1l5-1"/><path stroke="#fff" stroke-linecap="round" stroke-width="3.7" d="m324 440 1-15-1-2c0-2 0-2-2-1-1 1-5 3-5 5M125 456c-3-1-5-2-7 0-3 2-5 5-5 8 0 4 1 7 4 9h9c4-2 5-7 5-11 0-2-4-7-6-7"/><path stroke="#fff" stroke-linecap="round" stroke-width="3.7" d="M115 470c0-2 5-5 6-6l3-2 3-2M157 456c-2-1-5-2-7 0-3 2-5 5-5 8 0 4 1 7 4 9h9c4-2 5-7 5-11 0-2-3-7-6-7"/><path stroke="#fff" stroke-linecap="round" stroke-width="3.7" d="M147 470c0-2 5-5 6-6l4-2 2-2M178 474c1 0 6-2 8-1l5-1"/><path stroke="#fff" stroke-linecap="round" stroke-width="3.7" d="m184 473 1-15v-2c0-2-1-2-2-1-2 1-6 3-6 5M217 456c-2-1-5-2-7 0-3 2-5 5-5 8 0 4 1 7 4 9h9c5-2 6-7 6-11 0-2-4-7-7-7"/><path stroke="#fff" stroke-linecap="round" stroke-width="3.7" d="m207 470 6-6 4-2 2-2M249 456c-2-1-5-2-7 0-3 2-4 5-4 8-1 4 0 7 4 9h8c5-2 6-7 6-11 0-2-4-7-7-7"/><path stroke="#fff" stroke-linecap="round" stroke-width="3.7" d="M240 470c0-2 4-5 6-6l3-2 2-2M282 456c-3-1-5-2-8 0-2 2-4 5-4 8 0 4 1 7 4 9h9c4-2 5-7 5-11 0-2-4-7-6-7"/><path stroke="#fff" stroke-linecap="round" stroke-width="3.7" d="M272 470c0-2 5-5 6-6l3-2 3-2M314 456c-2-1-5-2-7 0-3 2-5 5-5 8 0 4 1 7 4 9h9c4-2 5-7 5-11 0-2-3-7-6-7"/><path stroke="#fff" stroke-linecap="round" stroke-width="3.7" d="M304 470c0-2 5-5 6-6l4-2 2-2M335 474c1 0 6-2 8-1l5-1"/><path stroke="#fff" stroke-linecap="round" stroke-width="3.7" d="m341 473 1-15v-2c0-2-1-2-2-1-2 1-6 3-6 5"/><path stroke="#fff" stroke-linecap="round" stroke-width="12" d="M7 299c-3 0 6-7 8-7l8-7c3-2 6-2 10-3 6-3 9 8 10 13 3 10 10 19 13 29 3 8 10 14 12 22l-22 6-7 6-8-10-6-12-6-11c-3-6-5-14-9-20"/><path stroke="#fff" stroke-linecap="round" stroke-width="12" d="M41 346c-5-10-11-25-20-32-4-2-6-10-6-14M48 341c-1-7-8-16-12-22l-7-10-7-11M57 342c-2 0-5-12-8-14l-8-14c-3-4-6-7-8-12-1-2-4-9-6-10"/><path stroke="#fff" stroke-linecap="round" stroke-width="12" d="M41 311c-6-1-9-13-12-17-2-2-2-6 2-6 3 0 6 6 6 9M384 309c1 0 11 1 9-3l-3-4v-13l9-4c5 0 14 0 18 4M381 312c16-5 11 10 9 19 0 3 1 5 5 5s7-4 11-5M436 308c3 0 6-1 8 1s2 7 1 9c-1 4-4 6-6 9s0 6 3 7c2 1 6-2 1 1-4 1-6 7-7 11s7 6 7 11c0 7-10 10-15 11"/></svg>