<svg version="1.2" xmlns="http://www.w3.org/2000/svg" viewBox="0 0 500 500"><style>.s0{opacity:.2;fill:#c2c4b8}.s1{opacity:.3;fill:#55595b}.s2{opacity:1;fill:#3e4458}.s3{fill:#c9cab1}.s4{opacity:1;fill:#758085}</style><g id="Background"><path id="Path 0" class="s0" d="M331 55v-1h2v1z"/><path id="Path 1" class="s1" d="M333 55v-1h6v1z"/><path id="Path 2" class="s0" d="M339 55v-1h2v1z"/><path id="Path 3" class="s0" d="M395 169h1v1h-1z"/><path id="Path 4" fill-rule="evenodd" class="s2" d="m328 56 3-1h10l4 2 9 7 2 6-3 18-9 15-1 4 3 2 9 10 3 4 16 19 2 3 19 24 1 1v3l-1 1v1l-13 22-16 18-40-18-9-2-11 2-19-7-23-1-32 8-7 7-14-2-28 19-14 16-1 1-10-5-4-3-1-1-28-23-5-4-5-5v-5l45-71-2-3-7-8-6-5-3-3-2-12 3-11 11-7h11l20 7 11 10 16-6 2-1 12-4h1l17-3 17-11 7-1-1 7 8-2 9-1 2 8 22 5 9-15zm-6 31 9 4 3-11-4-2zm-158 14 7 8 6-3-3-8-8-3z"/><path id="Path 5" class="s1" d="M153 229h1v1h-1z"/><path id="Path 6" class="s1" d="M395 173h1v1h-1z"/><path id="Path 7" class="s1" d="m261 64 8-2 2 7-4 1 1-7z"/><path id="Path 8" class="s1" d="m353 88 3-18 1 11z"/><path id="Path 9" class="s1" d="m142 102-3-3 1-9z"/><path id="Path 10" class="s1" d="m346 109-3-2 1-4z"/><path id="Path 11" class="s0" d="M396 170h1v1h-1z"/><path id="Path 12" class="s1" d="M396 173v-2h1v2z"/><path id="Path 13" class="s0" d="M395 174h1v1h-1z"/><path id="Path 14" class="s3" d="m169 237 14-16 28-19 14 2 7-7 32-8 23 1 19 7 11-2 9 2 40 18-19 13-19 8-35 9-55 5-43-4-2-1-4-1-5-1-3-1-8-2-3-1z"/><path id="Path 15" class="s2" d="m262 194 17 2 2 9-4 4h-7l-6-4-5 6-9 1-3-3 1-9z"/><path id="Path 16" class="s2" d="m293 245 35-9 2 5 6 17 3 13 2 4 2 7 3 10 3 10v1l1 3 2 7 2 7 1 3 3 10 1 3v22l-6 16-12 14-1 7-29 5-25 2-9-4-1-2 5-9 15-4 7-18 11-5 11 1 8-11-2-18-5-8h-4l-8 16-13 12-9 4h-9l-4-4-1-13z"/><path id="Path 17" class="s0" d="m168 238 1-1 1 2z"/><path id="Path 18" class="s2" d="m195 246 43 4 24 76 2 26-4 4h-8l-10-5-15-14-10-17-8 5-3 6-2 15 9 8 3 7 8-1 11 4 7 8 5 13 17 3 4 8-1 4-3 2h-23l-24-3-9-2-6-1-2 4-6 1h-2l-8 1h-11l-17 2h-13v-4l-2-19-15-25 10-2h7l13 18 6 26h8l8-1-1-13-8-20-8-10h3l8 2 1-4 1-16v-1l4-19 1-4 3-13 1-4 1-4 1-4 1-4v-1l1-3v-1l1-3v-1l1-3v-1l1-3v-1l1-3v-1l1-3 2-7v-2l1-3z"/><path id="Path 19" class="s4" d="m238 250 55-5-15 94 1 13 4 4h9l9-4 13-12 8-16h4l5 8 2 18-8 11-11-1-11 5-7 18-15 4-5 9h-8l-4-8-17-3-5-13-7-8-11-4-8 1-3-7-9-8 2-15 3-6 8-5 10 17 15 14 10 5h8l4-4-2-26z"/><path id="Path 20" class="s1" d="m172 352 2-16-1 16z"/><path id="Path 21" class="s1" d="M359 358v-22l2 19z"/><path id="Path 22" class="s0" d="M172 356v-4h1z"/><path id="Path 23" class="s0" d="m136 354 8-1-1 1z"/><path id="Path 24" class="s3" d="m143 354 1-1h13l4 1 8 10 8 20 1 13-8 1h-8l-6-26z"/><path id="Path 25" class="s0" d="m161 354-4-1 7 1z"/><path id="Path 26" class="s3" d="m111 363 15-7 15 25 2 19-12 1-6-21z"/><path id="Path 27" class="s2" d="m107 365 3-2h1l14 17 6 21v4H81l-3-3v-5l1-3 1-2 7-11z"/><path id="Path 28" class="s1" d="m340 395 1-7 2 5z"/><path id="Path 29" class="s1" d="m194 401 6-1 2-4-1 5z"/><path id="Path 30" class="s1" d="m267 400 1-4h8l1 2-8-1z"/><path id="Path 31" class="s0" d="M77 402v-5h1v5z"/><path id="Path 32" class="s4" d="m131 401 12-1v4l-4 1h-8z"/><path id="Path 33" class="s1" d="m156 404 17-2v1z"/><path id="Path 34" class="s0" d="M173 403v-1h8z"/><path id="Path 35" class="s0" d="m246 403-5-1h5z"/><path id="Path 36" class="s1" d="M246 403v-1h18z"/><path id="Path 37" class="s1" d="m139 405 4-1h9v1z"/><path id="Path 38" class="s0" d="M152 405v-1h4z"/><path id="Path 39" class="s0" d="m84 406-3-1h3z"/><path id="Path 40" class="s1" d="M84 406v-1h42v1z"/><path id="Path 41" class="s0" d="M126 406v-1h13z"/></g></svg>