<svg xmlns="http://www.w3.org/2000/svg" width="64" height="64" fill="none">
  <path fill="#00C51F" d="m0 14.194 11.355-7.742 10.838 2.064 10.065-4.129 10.839 2.065L53.419 0H64v64H0V14.194Z" />
  <path fill="#fff"
    d="M34.326 47.232c0 .494-.996.891-2.228.891-1.23 0-2.227-.397-2.227-.89s.997-.054 2.227-.054c1.232 0 2.228-.44 2.228.053Zm-5.97-4.35a1.901 1.901 0 0 1-3.8 0c0-1.047.851-1.9 1.9-1.9 1.047 0 1.9.853 1.9 1.9Zm11.286 0a1.901 1.901 0 0 1-3.8 0c0-1.047.851-1.9 1.9-1.9 1.047 0 1.9.853 1.9 1.9Z" />
  <path fill="#fff"
    d="M51.531 35.088c.8.802 1.557 1.56 1.655 2.358.106.85-.627 1.784-1.34 2.695-.495.63-4.087 4.121-4.155 4.555 0-1.26-.888-2.28-1.994-2.283a11.137 11.137 0 0 1-1.052 1.504c.372-1.27.576-2.58.576-3.88 0-.62-.06-1.207-.148-1.78-3.931-.876-10.046-2.706-11.528-5.818 0 0-6.722 5.24-14.498 6.296-.045.422-.07.856-.07 1.302 0 1.299.204 2.607.575 3.88a11.06 11.06 0 0 1-1.052-1.505c-1.106.002-1.994 1.023-1.994 2.283-.13-.431-3.25-1.374-3.826-1.942-.835-.822-1.62-1.599-1.677-2.43-.053-.811.611-1.655 1.316-2.549l.005-.006c.495-.63 1.056-1.342 1.088-1.788.031-.441-.226-1.186-.475-1.905l-.005-.014c-.383-1.098-.776-2.234-.458-3.03.311-.773 1.299-1.269 2.345-1.794.723-.362 1.472-.737 1.728-1.108.256-.37.345-1.201.43-2.005v-.003c.123-1.164.24-2.264.853-2.825.615-.562 1.72-.58 2.89-.598.809-.012 1.646-.026 2.038-.249.388-.22.826-.925 1.25-1.609l.008-.012.001-.003c.616-.994 1.196-1.933 1.994-2.172.746-.224 1.839.241 2.864.714.703.325 1.43.662 1.89.662.5-.033 1.205-.481 1.887-.916l.002-.001c.945-.604 1.942-1.227 2.742-1.094.822.13 1.524.981 2.268 1.884l.002.003.023.027c.51.615 1.032 1.245 1.444 1.41.361.144 1.189.076 2.053-.028l.02-.002c.519-.062 1.052-.125 1.534-.125.625 0 1.067.106 1.39.331.686.477.948 1.55 1.226 2.686l.008.031c.192.776.388 1.572.688 1.9.302.33 1.088.6 1.847.86l.02.007c1.104.379 2.149.737 2.559 1.46.412.722.184 1.801-.057 2.945l-.001.006-.002.009c-.167.79-.339 1.603-.21 2.033.135.439.729 1.036 1.304 1.613l.019.02Z" />
</svg>
