<svg xmlns="http://www.w3.org/2000/svg" width="288" height="297" fill="none"><path stroke="#10EB40" stroke-linecap="round" stroke-width="12" d="M194 143c-5-9-16-17-26-21-17-6-42-7-60-2-36 11-54 54-54 88 0 29 30 53 57 58 27 6 58 3 80-16 20-17 28-47 21-73-3-11-7-25-16-33"/><path stroke="#10EB40" stroke-linecap="round" stroke-width="12" d="M50 197c-5-2-9-8-12-12-6-7-8-10-5-19l3-6c3-1 1 0-1-2-6-4-8-10-8-16 0-5-2-13 2-16 2-2 8-6 7-7-3-10-4-32 8-38 6-2 12-4 18-2 4 2 6-9 6-12 3-15 20-23 32-13 6 6 6-3 10-8 5-7 10-8 18-8 7 1 16 5 21 10 1 2 2 5 4 4l9-5c10-7 29-2 29 11 0 1-3 6 2 5l8-3c7-2 18 1 25 5 4 3 5 9 6 14 0 5-8 8-2 8 12 0 25 7 22 21-1 5-5 9-9 13-2 2 0 2 2 3 3 1 5 5 7 8 6 8 5 17 0 25-1 2-11 8-9 9 19 15-6 33-21 39"/><path stroke="#10EB40" stroke-linecap="round" stroke-width="12" d="M96 178c-7-3 1-13 8-10 6 3-2 12-8 10ZM157 172c-3-1-7-1-7-5 0-3 3-5 6-5 9-1 9 14 0 10M123 192c0-1 1 6 5 6 5 0 15-8 14-12M30 167c-2 4-11-6-13-7-5-4-7-10-8-15s2-14 5-18c5-5 11-7 17-11"/><path stroke="#10EB40" stroke-linecap="round" stroke-width="12" d="M25 124c-5-3-5-13-5-17-1-8 4-11 11-11M27 158c-3-2-5-6-6-9-2-3-1 2 0 2 0 2-4-16-1-14 2 1 4 7 5 10 0 4-3-8-6-12 0-1-2-6 0-3 2 4 2 8 2 12"/><path stroke="#10EB40" stroke-linecap="round" stroke-width="12" d="M25 106v6c0 5 2-3 2-4 0-3 0-3-1 0M43 182c1-2 0-6-1-9l-1-2 3 9c0-5-3-11-5-16M132 101l-1 7M128 112c3-4 7-12 7-4 0 6 2 1 4-1 5-4 2 0 3 2 1 1 2-2 4 0M112 57l1-6 2-2"/><path stroke="#10EB40" stroke-linecap="round" stroke-width="12" d="M117 44c-1 2-6 17-2 9 1-3 3-8 0-2l-8 17M116 60c-1 3-4 17-1 15l6-7-3 12M126 82c7-3-8 17 5 11 13-5 1 15 6 13 1-1 7-6 8-3l-1 7c6-2 9-3 6 5M157 110c3-1 3 5 6 2 3-2 4 2 6 4"/><path stroke="#10EB40" stroke-linecap="round" stroke-width="12" d="m111 55 13-10c3-2-2 6-3 7"/><path stroke="#10EB40" stroke-linecap="round" stroke-width="12" d="M124 47c3 1 6-2 4 3M130 47c2 1 0 3-1 5"/><path stroke="#10EB40" stroke-linecap="round" stroke-width="12" d="M122 56c1 0 7-9 5-4M122 63c1 3 4 1 6 1 3 0 1 7 0 8 0 3 4 8 5 11M216 197c-3-1 6-4 8-5l8-5c5-3 12-7 14-12"/><path stroke="#10EB40" stroke-linecap="round" stroke-width="30" d="m34 112 5-4 9-6 4-3 5-3c4-1 7-2 9-5 4-5 10-8 15-11l6-7c3-3 7-4 11-5 7-3 16-3 23-6l9-2c2 1 6 4 9 3s6 3 8 4c6 2 13-2 19-3 4 0 6-1 10 1l10 4 9 8c3 3 5 5 10 3 2-1 6-3 7 2 0 2-2 9-4 10-5 4 6 8 8 8 4 2 9 1 13 3 9 4-4 12-5 17-2 8 8 14 11 19 2 3 5 6 2 9-3 4-10 4-11 9v7l2 5c0 2 3 3 2 5 0 1-2 3-3 1v-4l-4-8c-5-6-8-14-11-21l-10-19c-2-2-7-3-8-5l-8-6-15-15c-5-6-10-5-17-6-8-2-20-1-28 1-9 2-17 3-25 7-1 0 7-2 9-1l5 1-5-1-11 3-11 6-5 3 9-5c5-3 14-3 20-4 3-1 11 2 4 2-8-1-15-1-23 1s-12 3-18 8c-6 4-9 9-14 14-5 4-8 8-11 14-1 1-3 9-4 5l-1-8c1 4 4 11 3 14l3 9 1 4-1 6c-1 4 0 7-2 10"/><path stroke="#10EB40" stroke-linecap="round" stroke-width="30" d="M52 145c5-8 17-16 25-21 4-2 6-6 9-9l14-11c18-11 36-21 58-23 9 0 18 0 26 5 4 2 10 5 15 5M37 182l2 1M25 172h-1M44 205l2 1M223 210v-1"/></svg>