<svg xmlns="http://www.w3.org/2000/svg" width="981" height="822" fill="none"><path stroke="#10EB40" stroke-linecap="round" stroke-width="12" d="M526 355c-9-7-21-10-32-10-19 1-42 10-57 22-28 23-29 70-16 101 12 27 49 38 76 32 27-5 54-19 67-45 12-24 8-55-8-76-7-9-16-20-28-24"/><path stroke="#10EB40" stroke-linecap="round" stroke-width="12" d="M413 460c-5 0-11-5-15-7-9-4-12-6-12-16v-5c2-3 1-1-2-2-6-2-11-6-13-13-2-4-6-10-4-15 1-2 5-8 4-9-7-8-17-28-7-38 4-5 9-8 15-8 5 0 2-11 2-14-3-15 9-29 24-24 8 2 4-6 6-12 2-8 6-11 14-14 6-2 16-2 22 1 2 1 4 4 6 2l6-8c7-10 26-13 31-1 1 2 0 7 4 4l7-5c5-6 17-7 24-6 5 1 9 7 11 11s-4 11 1 8c11-5 27-3 29 11 1 6-1 11-4 16-1 2 1 1 3 1 3 0 7 4 10 5 8 6 11 14 10 24l-6 11c24 7 8 32-4 44"/><path stroke="#10EB40" stroke-linecap="round" stroke-width="12" d="M448 424c-7 0-3-12 4-11 7 0 3 11-4 11ZM502 396c-3 0-6 1-7-2-2-3 0-6 3-8 8-4 14 10 3 10M479 429s6 2 9 0c2-2 3-11-1-12M384 440c-1 4-13-1-15-2-6-1-10-6-13-11-3-4-4-13-2-18 2-7 7-11 11-16"/><path stroke="#10EB40" stroke-linecap="round" stroke-width="12" d="M363 402c-6-1-10-10-12-14-4-7-1-12 6-14M377 433c-4-1-7-4-9-6-3-3 0 1 1 2s-10-13-6-13c2 0 6 5 8 7 1 4-6-6-9-9l-2-2c3 3 4 6 6 10"/><path stroke="#10EB40" stroke-linecap="round" stroke-width="12" d="m356 386 2 5c2 5 1-4 0-5-1-2-1-2-1 1M401 449c0-3-2-6-4-8l-1-1c2 2 7 9 6 6l-11-12M452 340l2 7M453 351c1-4 1-13 5-6 2 5 2 0 3-3 3-5 2 0 3 1 2 1 2-2 4-1M417 307l-1-6 1-2M417 293l1 9c0-3 0-9-1-2v19M421 308c1 3 4 17 5 14 1-2 2-7 4-9l1 13"/><path stroke="#10EB40" stroke-linecap="round" stroke-width="12" d="M439 324c6-5-1 19 10 9 9-10 6 13 10 9 1-1 4-8 6-5 0 0 1 7 2 6 5-4 7-6 7 3M479 339c2-2 4 3 6-1 2-3 5 0 7 2M416 306l7-14c3-4 1 5 1 7"/><path stroke="#10EB40" stroke-linecap="round" stroke-width="12" d="M424 293c3-1 4-5 4 1M430 290c2 1 1 4 1 5"/><path stroke="#10EB40" stroke-linecap="round" stroke-width="12" d="M426 302c0-1 2-11 2-6M428 308c3 3 4 0 7-1 2-1 3 6 3 7 0 3 6 7 8 9M338 524l2 7c2 3 7 8 11 6 9-5 8-23 8-31-1-9-2-24-8-30M372 537c6 5 24-5 17-11l-12-4c-4-3-1-9 2-11M622 280l4 31c1 8 2 15 8 20M601 279l20-1c10-2 21-4 31-8M673 327c6 5 21-7 15-11-4-4-15 0-18-5-4-6 3-12 8-15M622 471c3 1 4 16 4 19 0 7-3 20 2 25M631 463c11-2 20-4 18 10-1 9-9 19-18 14M679 509l-1-31M673 488l21-4M697 476v28M720 463c3 12 3 24 7 35M720 461c9-11 37 11 20 24M287 254c-9 0-20-1-27 7-6 8-11 27-4 35 7 9 23 12 33 8 4-2 11-9 10-13-2-5-15-3-19-3M342 256c-5 0-12 1-16 5-5 7-3 19 4 24 6 5 14 0 17-6 5-7 7-13 0-19M197 444c3 1 6 5 8 7l12 9 11 9"/><path stroke="#10EB40" stroke-linecap="round" stroke-width="12" d="M199 447c0-7 4-13 6-19 2-2 12-19 13-15M219 452l7-22M239 435c4 4 13 11 17 3 4-6 0-18-6-21M284 430c-3-13-8-18-21-21M276 408c1-4 3-23 11-20 8 4 11 14 13 21M434 174c3 0 0 24 0 27v17"/><path stroke="#10EB40" stroke-linecap="round" stroke-width="12" d="M431 175c7-6 23-6 27 4 2 8-5 27-17 20"/><path stroke="#10EB40" stroke-linecap="round" stroke-width="12" d="M444 200c0-4 19 16 21 18M518 188c-13 1-30 14-28 29 0 10 20 12 24 4M498 205h15M541 226c1-3 2-31 9-31 8 1 17 24 18 31M549 220l9-6M608 196c-14-7-25 14-24 26 1 6 9 7 13 7 7 0 11-7 15-13M645 228v-23M628 198c11-4 22-7 33-8M454 610c3 3 9 6 13 4 5-2 10-17 7-22-4-6-15-2-17-11-2-6 0-16 8-15M497 584c3 2 16 20 20 17 5-4 5-20 5-26M566 572c-1-4-10 1-12 3-5 4-10 13-7 20 3 6 22 15 25 6M552 592l10-3M594 571l3 13c1 6 1 12 4 18M625 596l-2-17M613 572l26-2M682 565c-3-3-8 1-10 3-7 6-10 13-9 21 4 20 18 9 31 9"/><path stroke="#10EB40" stroke-linecap="round" stroke-width="12" d="M668 585c4-2 10-1 14-2M262 617c6-5 9-11 10-19l1-11v-6c3 4 3 10 5 14s8 10 12 13l9 4c2 1-4 3-6 4-10 5-11 20-11 31 0 8-4-1-6-4-2-4-5-8-9-10-1-1-15-6-15-8s10-13 11-14c4-3 7-9 10-10M743 252c7 0 11-12 12-17v-8c0-3-3-8-1-5 5 7 10 16 17 20 2 2 6 5 9 5s5 0 3 3c-6 7-8 13-10 21l-2 13c0 3-4-6-5-7-3-6-5-15-11-19l-8-5-7-3M566 396c-3 0 5-6 6-8 3-2 4-5 6-8 3-4 8-10 8-16"/><path stroke="#10EB40" stroke-linecap="round" stroke-width="30" d="m366 387 3-5c3-3 4-8 6-9 2-2 1-3 2-5l4-4c3-3 6-5 7-9 1-6 6-10 9-15l3-9c1-4 5-7 8-9l20-14c1-2 4-4 7-5 2-1 7 1 9-1s6 0 9 0c6 0 11-6 16-9 4-2 5-4 10-4 3 0 8-1 11 1s8 2 11 3c4 1 7 3 10-1 2-1 5-5 8-1v12c-3 4 8 4 10 4 5-1 9-3 14-3 10 0 0 13 1 18 2 8 13 10 19 13 2 2 6 4 5 8-2 4-8 7-7 12l2 6 4 5c1 1 4 1 4 3s-1 4-3 2l-1-3-7-6c-7-4-13-10-18-16l-17-13-9-1c-2-2-7-2-9-3l-20-8c-7-4-11-1-18 1-9 2-19 7-26 12-8 5-14 9-20 15-1 1 5-3 8-3l4-1-4 1c-3 0-7 5-9 7l-8 9-4 5 7-8c4-5 12-8 17-12 2-2 11-2 4 0-7 3-14 5-20 10-7 5-11 8-14 15-4 6-5 11-8 18-2 5-4 10-4 17 0 1 0 9-2 7-1-2-7-10-4-7 2 2 8 8 8 11 1 3 5 5 6 7l3 4 1 6 2 10"/><path stroke="#10EB40" stroke-linecap="round" stroke-width="30" d="M395 411c2-9 10-21 16-29l4-11c3-6 5-12 9-17 12-16 26-33 44-42 8-4 17-8 26-6 5 0 12 1 16-1M396 451h2M380 447h0M411 470h2M578 405h0"/></svg>