<svg width="166" height="124" viewBox="0 0 166 124" fill="none" xmlns="http://www.w3.org/2000/svg">
<rect width="124" height="124" fill="#1947E5"/>
<path d="M33.472 28.8H66.592C74.08 28.8 80.672 30.176 86.368 32.928C92.128 35.616 96.576 39.488 99.712 44.544C102.912 49.6 104.512 55.552 104.512 62.4C104.512 69.248 102.912 75.2 99.712 80.256C96.576 85.312 92.128 89.216 86.368 91.968C80.672 94.656 74.08 96 66.592 96H33.472V28.8ZM65.632 78.336C70.496 78.336 74.368 76.96 77.248 74.208C80.192 71.392 81.664 67.456 81.664 62.4C81.664 57.344 80.192 53.44 77.248 50.688C74.368 47.872 70.496 46.464 65.632 46.464H56.128V78.336H65.632ZM112.785 28.8H135.441V78.432H165.777V96H112.785V28.8Z" fill="white"/>
</svg>
